<svg width="138" height="40" viewBox="0 0 138 40" fill="none" xmlns="http://www.w3.org/2000/svg">
<rect width="138" height="40" rx="4" fill="#0D0D0D"/>
<rect x="1" y="2" width="36" height="36" rx="18" fill="#0D0D0D"/>
<path d="M19.1429 14.5585C18.2541 14.5585 16.8784 13.548 15.4296 13.5845C13.5182 13.6089 11.765 14.6924 10.7788 16.4091C8.79437 19.8545 10.2675 24.9436 12.2033 27.7437C13.1529 29.1073 14.273 30.6413 15.7583 30.5926C17.1827 30.5317 17.7184 29.6673 19.4472 29.6673C21.1639 29.6673 21.6509 30.5926 23.1605 30.5561C24.6945 30.5317 25.6685 29.1682 26.606 27.7924C27.6895 26.2097 28.14 24.6757 28.1643 24.5905C28.1278 24.5783 25.1815 23.4461 25.145 20.0371C25.1207 17.1883 27.4704 15.8247 27.58 15.7638C26.2407 13.8037 24.1832 13.5845 23.4649 13.5358C21.59 13.3898 20.0195 14.5585 19.1429 14.5585ZM22.3083 11.6853C23.0997 10.7357 23.6232 9.40862 23.4771 8.09375C22.3448 8.14245 20.9813 8.84858 20.1656 9.79821C19.4351 10.6383 18.802 11.9897 18.9724 13.2802C20.2264 13.3776 21.5169 12.6349 22.3083 11.6853Z" fill="white"/>
<path d="M46.496 11.704C46.496 12.348 46.394 12.934 46.19 13.462C45.986 13.99 45.698 14.442 45.326 14.818C44.954 15.194 44.508 15.486 43.988 15.694C43.468 15.898 42.892 16 42.26 16H39.044V7.402H42.26C42.892 7.402 43.468 7.506 43.988 7.714C44.508 7.918 44.954 8.21 45.326 8.59C45.698 8.966 45.986 9.418 46.19 9.946C46.394 10.474 46.496 11.06 46.496 11.704ZM45.302 11.704C45.302 11.176 45.23 10.704 45.086 10.288C44.942 9.872 44.738 9.52 44.474 9.232C44.21 8.944 43.89 8.724 43.514 8.572C43.138 8.42 42.72 8.344 42.26 8.344H40.214V15.058H42.26C42.72 15.058 43.138 14.982 43.514 14.83C43.89 14.678 44.21 14.46 44.474 14.176C44.738 13.888 44.942 13.536 45.086 13.12C45.23 12.704 45.302 12.232 45.302 11.704ZM50.3712 9.826C50.8152 9.826 51.2152 9.9 51.5712 10.048C51.9312 10.196 52.2352 10.406 52.4832 10.678C52.7352 10.95 52.9272 11.28 53.0592 11.668C53.1952 12.052 53.2632 12.482 53.2632 12.958C53.2632 13.438 53.1952 13.87 53.0592 14.254C52.9272 14.638 52.7352 14.966 52.4832 15.238C52.2352 15.51 51.9312 15.72 51.5712 15.868C51.2152 16.012 50.8152 16.084 50.3712 16.084C49.9272 16.084 49.5252 16.012 49.1652 15.868C48.8092 15.72 48.5052 15.51 48.2532 15.238C48.0012 14.966 47.8072 14.638 47.6712 14.254C47.5352 13.87 47.4672 13.438 47.4672 12.958C47.4672 12.482 47.5352 12.052 47.6712 11.668C47.8072 11.28 48.0012 10.95 48.2532 10.678C48.5052 10.406 48.8092 10.196 49.1652 10.048C49.5252 9.9 49.9272 9.826 50.3712 9.826ZM50.3712 15.25C50.9712 15.25 51.4192 15.05 51.7152 14.65C52.0112 14.246 52.1592 13.684 52.1592 12.964C52.1592 12.24 52.0112 11.676 51.7152 11.272C51.4192 10.868 50.9712 10.666 50.3712 10.666C50.0672 10.666 49.8032 10.718 49.5792 10.822C49.3552 10.926 49.1672 11.076 49.0152 11.272C48.8672 11.468 48.7552 11.71 48.6792 11.998C48.6072 12.282 48.5712 12.604 48.5712 12.964C48.5712 13.324 48.6072 13.646 48.6792 13.93C48.7552 14.214 48.8672 14.454 49.0152 14.65C49.1672 14.842 49.3552 14.99 49.5792 15.094C49.8032 15.198 50.0672 15.25 50.3712 15.25ZM53.7871 9.922H54.6271C54.7151 9.922 54.7871 9.944 54.8431 9.988C54.8991 10.032 54.9371 10.084 54.9571 10.144L56.1211 14.056C56.1531 14.2 56.1831 14.34 56.2111 14.476C56.2391 14.608 56.2631 14.742 56.2831 14.878C56.3151 14.742 56.3511 14.608 56.3911 14.476C56.4311 14.34 56.4731 14.2 56.5171 14.056L57.8011 10.12C57.8211 10.06 57.8551 10.01 57.9031 9.97C57.9551 9.93 58.0191 9.91 58.0951 9.91H58.5571C58.6371 9.91 58.7031 9.93 58.7551 9.97C58.8071 10.01 58.8431 10.06 58.8631 10.12L60.1171 14.056C60.1611 14.196 60.1991 14.334 60.2311 14.47C60.2671 14.606 60.3011 14.74 60.3331 14.872C60.3531 14.74 60.3791 14.602 60.4111 14.458C60.4431 14.314 60.4771 14.18 60.5131 14.056L61.7011 10.144C61.7211 10.08 61.7591 10.028 61.8151 9.988C61.8711 9.944 61.9371 9.922 62.0131 9.922H62.8171L60.8491 16H60.0031C59.8991 16 59.8271 15.932 59.7871 15.796L58.4431 11.674C58.4111 11.582 58.3851 11.49 58.3651 11.398C58.3451 11.302 58.3251 11.208 58.3051 11.116C58.2851 11.208 58.2651 11.302 58.2451 11.398C58.2251 11.494 58.1991 11.588 58.1671 11.68L56.8051 15.796C56.7611 15.932 56.6791 16 56.5591 16H55.7551L53.7871 9.922ZM63.7666 16V9.922H64.4026C64.5546 9.922 64.6506 9.996 64.6906 10.144L64.7746 10.804C65.0386 10.512 65.3326 10.276 65.6566 10.096C65.9846 9.916 66.3626 9.826 66.7906 9.826C67.1226 9.826 67.4146 9.882 67.6666 9.994C67.9226 10.102 68.1346 10.258 68.3026 10.462C68.4746 10.662 68.6046 10.904 68.6926 11.188C68.7806 11.472 68.8246 11.786 68.8246 12.13V16H67.7566V12.13C67.7566 11.67 67.6506 11.314 67.4386 11.062C67.2306 10.806 66.9106 10.678 66.4786 10.678C66.1626 10.678 65.8666 10.754 65.5906 10.906C65.3186 11.058 65.0666 11.264 64.8346 11.524V16H63.7666ZM71.6226 7.162V16H70.5546V7.162H71.6226ZM75.9649 9.826C76.4089 9.826 76.8089 9.9 77.1649 10.048C77.5249 10.196 77.8289 10.406 78.0769 10.678C78.3289 10.95 78.5209 11.28 78.6529 11.668C78.7889 12.052 78.8569 12.482 78.8569 12.958C78.8569 13.438 78.7889 13.87 78.6529 14.254C78.5209 14.638 78.3289 14.966 78.0769 15.238C77.8289 15.51 77.5249 15.72 77.1649 15.868C76.8089 16.012 76.4089 16.084 75.9649 16.084C75.5209 16.084 75.1189 16.012 74.7589 15.868C74.4029 15.72 74.0989 15.51 73.8469 15.238C73.5949 14.966 73.4009 14.638 73.2649 14.254C73.1289 13.87 73.0609 13.438 73.0609 12.958C73.0609 12.482 73.1289 12.052 73.2649 11.668C73.4009 11.28 73.5949 10.95 73.8469 10.678C74.0989 10.406 74.4029 10.196 74.7589 10.048C75.1189 9.9 75.5209 9.826 75.9649 9.826ZM75.9649 15.25C76.5649 15.25 77.0129 15.05 77.3089 14.65C77.6049 14.246 77.7529 13.684 77.7529 12.964C77.7529 12.24 77.6049 11.676 77.3089 11.272C77.0129 10.868 76.5649 10.666 75.9649 10.666C75.6609 10.666 75.3969 10.718 75.1729 10.822C74.9489 10.926 74.7609 11.076 74.6089 11.272C74.4609 11.468 74.3489 11.71 74.2729 11.998C74.2009 12.282 74.1649 12.604 74.1649 12.964C74.1649 13.324 74.2009 13.646 74.2729 13.93C74.3489 14.214 74.4609 14.454 74.6089 14.65C74.7609 14.842 74.9489 14.99 75.1729 15.094C75.3969 15.198 75.6609 15.25 75.9649 15.25ZM84.6369 16H84.1629C84.0589 16 83.9749 15.984 83.9109 15.952C83.8469 15.92 83.8049 15.852 83.7849 15.748L83.6649 15.184C83.5049 15.328 83.3489 15.458 83.1969 15.574C83.0449 15.686 82.8849 15.782 82.7169 15.862C82.5489 15.938 82.3689 15.996 82.1769 16.036C81.9889 16.076 81.7789 16.096 81.5469 16.096C81.3109 16.096 81.0889 16.064 80.8809 16C80.6769 15.932 80.4989 15.832 80.3469 15.7C80.1949 15.568 80.0729 15.402 79.9809 15.202C79.8929 14.998 79.8489 14.758 79.8489 14.482C79.8489 14.242 79.9149 14.012 80.0469 13.792C80.1789 13.568 80.3909 13.37 80.6829 13.198C80.9789 13.026 81.3649 12.886 81.8409 12.778C82.3169 12.666 82.8989 12.602 83.5869 12.586V12.112C83.5869 11.64 83.4849 11.284 83.2809 11.044C83.0809 10.8 82.7829 10.678 82.3869 10.678C82.1269 10.678 81.9069 10.712 81.7269 10.78C81.5509 10.844 81.3969 10.918 81.2649 11.002C81.1369 11.082 81.0249 11.156 80.9289 11.224C80.8369 11.288 80.7449 11.32 80.6529 11.32C80.5809 11.32 80.5169 11.302 80.4609 11.266C80.4089 11.226 80.3669 11.178 80.3349 11.122L80.1429 10.78C80.4789 10.456 80.8409 10.214 81.2289 10.054C81.6169 9.894 82.0469 9.814 82.5189 9.814C82.8589 9.814 83.1609 9.87 83.4249 9.982C83.6889 10.094 83.9109 10.25 84.0909 10.45C84.2709 10.65 84.4069 10.892 84.4989 11.176C84.5909 11.46 84.6369 11.772 84.6369 12.112V16ZM81.8649 15.346C82.0529 15.346 82.2249 15.328 82.3809 15.292C82.5369 15.252 82.6829 15.198 82.8189 15.13C82.9589 15.058 83.0909 14.972 83.2149 14.872C83.3429 14.772 83.4669 14.658 83.5869 14.53V13.264C83.0949 13.28 82.6769 13.32 82.3329 13.384C81.9889 13.444 81.7089 13.524 81.4929 13.624C81.2769 13.724 81.1189 13.842 81.0189 13.978C80.9229 14.114 80.8749 14.266 80.8749 14.434C80.8749 14.594 80.9009 14.732 80.9529 14.848C81.0049 14.964 81.0749 15.06 81.1629 15.136C81.2509 15.208 81.3549 15.262 81.4749 15.298C81.5949 15.33 81.7249 15.346 81.8649 15.346ZM90.5329 16C90.3809 16 90.2849 15.926 90.2449 15.778L90.1489 15.04C89.8889 15.356 89.5909 15.61 89.2549 15.802C88.9229 15.99 88.5409 16.084 88.1089 16.084C87.7609 16.084 87.4449 16.018 87.1609 15.886C86.8769 15.75 86.6349 15.552 86.4349 15.292C86.2349 15.032 86.0809 14.708 85.9729 14.32C85.8649 13.932 85.8109 13.486 85.8109 12.982C85.8109 12.534 85.8709 12.118 85.9909 11.734C86.1109 11.346 86.2829 11.01 86.5069 10.726C86.7349 10.442 87.0109 10.22 87.3349 10.06C87.6589 9.896 88.0269 9.814 88.4389 9.814C88.8109 9.814 89.1289 9.878 89.3929 10.006C89.6569 10.13 89.8929 10.306 90.1009 10.534V7.162H91.1689V16H90.5329ZM88.4629 15.22C88.8109 15.22 89.1149 15.14 89.3749 14.98C89.6389 14.82 89.8809 14.594 90.1009 14.302V11.362C89.9049 11.098 89.6889 10.914 89.4529 10.81C89.2209 10.702 88.9629 10.648 88.6789 10.648C88.1109 10.648 87.6749 10.85 87.3709 11.254C87.0669 11.658 86.9149 12.234 86.9149 12.982C86.9149 13.378 86.9489 13.718 87.0169 14.002C87.0849 14.282 87.1849 14.514 87.3169 14.698C87.4489 14.878 87.6109 15.01 87.8029 15.094C87.9949 15.178 88.2149 15.22 88.4629 15.22ZM97.7383 9.826C98.1823 9.826 98.5823 9.9 98.9383 10.048C99.2983 10.196 99.6023 10.406 99.8503 10.678C100.102 10.95 100.294 11.28 100.426 11.668C100.562 12.052 100.63 12.482 100.63 12.958C100.63 13.438 100.562 13.87 100.426 14.254C100.294 14.638 100.102 14.966 99.8503 15.238C99.6023 15.51 99.2983 15.72 98.9383 15.868C98.5823 16.012 98.1823 16.084 97.7383 16.084C97.2943 16.084 96.8923 16.012 96.5323 15.868C96.1763 15.72 95.8723 15.51 95.6203 15.238C95.3683 14.966 95.1743 14.638 95.0383 14.254C94.9023 13.87 94.8343 13.438 94.8343 12.958C94.8343 12.482 94.9023 12.052 95.0383 11.668C95.1743 11.28 95.3683 10.95 95.6203 10.678C95.8723 10.406 96.1763 10.196 96.5323 10.048C96.8923 9.9 97.2943 9.826 97.7383 9.826ZM97.7383 15.25C98.3383 15.25 98.7863 15.05 99.0823 14.65C99.3783 14.246 99.5263 13.684 99.5263 12.964C99.5263 12.24 99.3783 11.676 99.0823 11.272C98.7863 10.868 98.3383 10.666 97.7383 10.666C97.4343 10.666 97.1703 10.718 96.9463 10.822C96.7223 10.926 96.5343 11.076 96.3823 11.272C96.2343 11.468 96.1223 11.71 96.0463 11.998C95.9743 12.282 95.9383 12.604 95.9383 12.964C95.9383 13.324 95.9743 13.646 96.0463 13.93C96.1223 14.214 96.2343 14.454 96.3823 14.65C96.5343 14.842 96.7223 14.99 96.9463 15.094C97.1703 15.198 97.4343 15.25 97.7383 15.25ZM101.946 16V9.922H102.582C102.734 9.922 102.83 9.996 102.87 10.144L102.954 10.804C103.218 10.512 103.512 10.276 103.836 10.096C104.164 9.916 104.542 9.826 104.97 9.826C105.302 9.826 105.594 9.882 105.846 9.994C106.102 10.102 106.314 10.258 106.482 10.462C106.654 10.662 106.784 10.904 106.872 11.188C106.96 11.472 107.004 11.786 107.004 12.13V16H105.936V12.13C105.936 11.67 105.83 11.314 105.618 11.062C105.41 10.806 105.09 10.678 104.658 10.678C104.342 10.678 104.046 10.754 103.77 10.906C103.498 11.058 103.246 11.264 103.014 11.524V16H101.946ZM112.777 16.096C112.297 16.096 111.927 15.962 111.667 15.694C111.411 15.426 111.283 15.04 111.283 14.536V10.816H110.551C110.487 10.816 110.433 10.798 110.389 10.762C110.345 10.722 110.323 10.662 110.323 10.582V10.156L111.319 10.03L111.565 8.152C111.573 8.092 111.599 8.044 111.643 8.008C111.687 7.968 111.743 7.948 111.811 7.948H112.351V10.042H114.091V10.816H112.351V14.464C112.351 14.72 112.413 14.91 112.537 15.034C112.661 15.158 112.821 15.22 113.017 15.22C113.129 15.22 113.225 15.206 113.305 15.178C113.389 15.146 113.461 15.112 113.521 15.076C113.581 15.04 113.631 15.008 113.671 14.98C113.715 14.948 113.753 14.932 113.785 14.932C113.841 14.932 113.891 14.966 113.935 15.034L114.247 15.544C114.063 15.716 113.841 15.852 113.581 15.952C113.321 16.048 113.053 16.096 112.777 16.096ZM115.411 16V7.162H116.479V10.738C116.739 10.462 117.027 10.242 117.343 10.078C117.659 9.91 118.023 9.826 118.435 9.826C118.767 9.826 119.059 9.882 119.311 9.994C119.567 10.102 119.779 10.258 119.947 10.462C120.119 10.662 120.249 10.904 120.337 11.188C120.425 11.472 120.469 11.786 120.469 12.13V16H119.401V12.13C119.401 11.67 119.295 11.314 119.083 11.062C118.875 10.806 118.555 10.678 118.123 10.678C117.807 10.678 117.511 10.754 117.235 10.906C116.963 11.058 116.711 11.264 116.479 11.524V16H115.411ZM124.485 9.826C124.849 9.826 125.185 9.888 125.493 10.012C125.801 10.132 126.067 10.308 126.291 10.54C126.515 10.768 126.689 11.052 126.813 11.392C126.941 11.728 127.005 12.112 127.005 12.544C127.005 12.712 126.987 12.824 126.951 12.88C126.915 12.936 126.847 12.964 126.747 12.964H122.703C122.711 13.348 122.763 13.682 122.859 13.966C122.955 14.25 123.087 14.488 123.255 14.68C123.423 14.868 123.623 15.01 123.855 15.106C124.087 15.198 124.347 15.244 124.635 15.244C124.903 15.244 125.133 15.214 125.325 15.154C125.521 15.09 125.689 15.022 125.829 14.95C125.969 14.878 126.085 14.812 126.177 14.752C126.273 14.688 126.355 14.656 126.423 14.656C126.511 14.656 126.579 14.69 126.627 14.758L126.927 15.148C126.795 15.308 126.637 15.448 126.453 15.568C126.269 15.684 126.071 15.78 125.859 15.856C125.651 15.932 125.435 15.988 125.211 16.024C124.987 16.064 124.765 16.084 124.545 16.084C124.125 16.084 123.737 16.014 123.381 15.874C123.029 15.73 122.723 15.522 122.463 15.25C122.207 14.974 122.007 14.634 121.863 14.23C121.719 13.826 121.647 13.362 121.647 12.838C121.647 12.414 121.711 12.018 121.839 11.65C121.971 11.282 122.159 10.964 122.403 10.696C122.647 10.424 122.945 10.212 123.297 10.06C123.649 9.904 124.045 9.826 124.485 9.826ZM124.509 10.612C123.993 10.612 123.587 10.762 123.291 11.062C122.995 11.358 122.811 11.77 122.739 12.298H126.045C126.045 12.05 126.011 11.824 125.943 11.62C125.875 11.412 125.775 11.234 125.643 11.086C125.511 10.934 125.349 10.818 125.157 10.738C124.969 10.654 124.753 10.612 124.509 10.612ZM48.1475 34H47.0225C46.8925 34 46.7875 33.9675 46.7075 33.9025C46.6275 33.8375 46.5675 33.755 46.5275 33.655L45.5225 31.06H40.7L39.695 33.655C39.66 33.745 39.6 33.825 39.515 33.895C39.43 33.965 39.325 34 39.2 34H38.075L42.3725 23.2525H43.85L48.1475 34ZM41.105 30.01H45.1175L43.43 25.6375C43.32 25.3675 43.2125 25.03 43.1075 24.625C43.0525 24.83 42.9975 25.02 42.9425 25.195C42.8925 25.365 42.8425 25.515 42.7925 25.645L41.105 30.01ZM49.2903 36.5725V26.4025H50.0853C50.2753 26.4025 50.3953 26.495 50.4453 26.68L50.5578 27.58C50.8828 27.185 51.2528 26.8675 51.6678 26.6275C52.0878 26.3875 52.5703 26.2675 53.1153 26.2675C53.5503 26.2675 53.9453 26.3525 54.3003 26.5225C54.6553 26.6875 54.9578 26.935 55.2078 27.265C55.4578 27.59 55.6503 27.995 55.7853 28.48C55.9203 28.965 55.9878 29.5225 55.9878 30.1525C55.9878 30.7125 55.9128 31.235 55.7628 31.72C55.6128 32.2 55.3978 32.6175 55.1178 32.9725C54.8378 33.3225 54.4928 33.6 54.0828 33.805C53.6778 34.005 53.2203 34.105 52.7103 34.105C52.2403 34.105 51.8378 34.0275 51.5028 33.8725C51.1728 33.7175 50.8803 33.4975 50.6253 33.2125V36.5725H49.2903ZM52.6728 27.3475C52.2378 27.3475 51.8553 27.4475 51.5253 27.6475C51.2003 27.8475 50.9003 28.13 50.6253 28.495V32.17C50.8703 32.5 51.1378 32.7325 51.4278 32.8675C51.7228 33.0025 52.0503 33.07 52.4103 33.07C53.1153 33.07 53.6578 32.8175 54.0378 32.3125C54.4178 31.8075 54.6078 31.0875 54.6078 30.1525C54.6078 29.6575 54.5628 29.2325 54.4728 28.8775C54.3878 28.5225 54.2628 28.2325 54.0978 28.0075C53.9328 27.7775 53.7303 27.61 53.4903 27.505C53.2503 27.4 52.9778 27.3475 52.6728 27.3475ZM57.5667 36.5725V26.4025H58.3617C58.5517 26.4025 58.6717 26.495 58.7217 26.68L58.8342 27.58C59.1592 27.185 59.5292 26.8675 59.9442 26.6275C60.3642 26.3875 60.8467 26.2675 61.3917 26.2675C61.8267 26.2675 62.2217 26.3525 62.5767 26.5225C62.9317 26.6875 63.2342 26.935 63.4842 27.265C63.7342 27.59 63.9267 27.995 64.0617 28.48C64.1967 28.965 64.2642 29.5225 64.2642 30.1525C64.2642 30.7125 64.1892 31.235 64.0392 31.72C63.8892 32.2 63.6742 32.6175 63.3942 32.9725C63.1142 33.3225 62.7692 33.6 62.3592 33.805C61.9542 34.005 61.4967 34.105 60.9867 34.105C60.5167 34.105 60.1142 34.0275 59.7792 33.8725C59.4492 33.7175 59.1567 33.4975 58.9017 33.2125V36.5725H57.5667ZM60.9492 27.3475C60.5142 27.3475 60.1317 27.4475 59.8017 27.6475C59.4767 27.8475 59.1767 28.13 58.9017 28.495V32.17C59.1467 32.5 59.4142 32.7325 59.7042 32.8675C59.9992 33.0025 60.3267 33.07 60.6867 33.07C61.3917 33.07 61.9342 32.8175 62.3142 32.3125C62.6942 31.8075 62.8842 31.0875 62.8842 30.1525C62.8842 29.6575 62.8392 29.2325 62.7492 28.8775C62.6642 28.5225 62.5392 28.2325 62.3742 28.0075C62.2092 27.7775 62.0067 27.61 61.7667 27.505C61.5267 27.4 61.2542 27.3475 60.9492 27.3475ZM70.193 27.655C70.133 27.765 70.0405 27.82 69.9155 27.82C69.8405 27.82 69.7555 27.7925 69.6605 27.7375C69.5655 27.6825 69.448 27.6225 69.308 27.5575C69.173 27.4875 69.0105 27.425 68.8205 27.37C68.6305 27.31 68.4055 27.28 68.1455 27.28C67.9205 27.28 67.718 27.31 67.538 27.37C67.358 27.425 67.203 27.5025 67.073 27.6025C66.948 27.7025 66.8505 27.82 66.7805 27.955C66.7155 28.085 66.683 28.2275 66.683 28.3825C66.683 28.5775 66.738 28.74 66.848 28.87C66.963 29 67.113 29.1125 67.298 29.2075C67.483 29.3025 67.693 29.3875 67.928 29.4625C68.163 29.5325 68.403 29.61 68.648 29.695C68.898 29.775 69.1405 29.865 69.3755 29.965C69.6105 30.065 69.8205 30.19 70.0055 30.34C70.1905 30.49 70.338 30.675 70.448 30.895C70.563 31.11 70.6205 31.37 70.6205 31.675C70.6205 32.025 70.558 32.35 70.433 32.65C70.308 32.945 70.123 33.2025 69.878 33.4225C69.633 33.6375 69.333 33.8075 68.978 33.9325C68.623 34.0575 68.213 34.12 67.748 34.12C67.218 34.12 66.738 34.035 66.308 33.865C65.878 33.69 65.513 33.4675 65.213 33.1975L65.528 32.6875C65.568 32.6225 65.6155 32.5725 65.6705 32.5375C65.7255 32.5025 65.798 32.485 65.888 32.485C65.978 32.485 66.073 32.52 66.173 32.59C66.273 32.66 66.393 32.7375 66.533 32.8225C66.678 32.9075 66.8505 32.985 67.0505 33.055C67.2555 33.125 67.5105 33.16 67.8155 33.16C68.0755 33.16 68.303 33.1275 68.498 33.0625C68.693 32.9925 68.8555 32.9 68.9855 32.785C69.1155 32.67 69.2105 32.5375 69.2705 32.3875C69.3355 32.2375 69.368 32.0775 69.368 31.9075C69.368 31.6975 69.3105 31.525 69.1955 31.39C69.0855 31.25 68.938 31.1325 68.753 31.0375C68.568 30.9375 68.3555 30.8525 68.1155 30.7825C67.8805 30.7075 67.638 30.63 67.388 30.55C67.143 30.47 66.9005 30.38 66.6605 30.28C66.4255 30.175 66.2155 30.045 66.0305 29.89C65.8455 29.735 65.6955 29.545 65.5805 29.32C65.4705 29.09 65.4155 28.8125 65.4155 28.4875C65.4155 28.1975 65.4755 27.92 65.5955 27.655C65.7155 27.385 65.8905 27.15 66.1205 26.95C66.3505 26.745 66.633 26.5825 66.968 26.4625C67.303 26.3425 67.6855 26.2825 68.1155 26.2825C68.6155 26.2825 69.063 26.3625 69.458 26.5225C69.858 26.6775 70.203 26.8925 70.493 27.1675L70.193 27.655ZM74.6495 34.12C74.0495 34.12 73.587 33.9525 73.262 33.6175C72.942 33.2825 72.782 32.8 72.782 32.17V27.52H71.867C71.787 27.52 71.7195 27.4975 71.6645 27.4525C71.6095 27.4025 71.582 27.3275 71.582 27.2275V26.695L72.827 26.5375L73.1345 24.19C73.1445 24.115 73.177 24.055 73.232 24.01C73.287 23.96 73.357 23.935 73.442 23.935H74.117V26.5525H76.292V27.52H74.117V32.08C74.117 32.4 74.1945 32.6375 74.3495 32.7925C74.5045 32.9475 74.7045 33.025 74.9495 33.025C75.0895 33.025 75.2095 33.0075 75.3095 32.9725C75.4145 32.9325 75.5045 32.89 75.5795 32.845C75.6545 32.8 75.717 32.76 75.767 32.725C75.822 32.685 75.8695 32.665 75.9095 32.665C75.9795 32.665 76.042 32.7075 76.097 32.7925L76.487 33.43C76.257 33.645 75.9795 33.815 75.6545 33.94C75.3295 34.06 74.9945 34.12 74.6495 34.12ZM81.0177 26.2825C81.5727 26.2825 82.0727 26.375 82.5177 26.56C82.9677 26.745 83.3477 27.0075 83.6577 27.3475C83.9727 27.6875 84.2127 28.1 84.3777 28.585C84.5477 29.065 84.6327 29.6025 84.6327 30.1975C84.6327 30.7975 84.5477 31.3375 84.3777 31.8175C84.2127 32.2975 83.9727 32.7075 83.6577 33.0475C83.3477 33.3875 82.9677 33.65 82.5177 33.835C82.0727 34.015 81.5727 34.105 81.0177 34.105C80.4627 34.105 79.9602 34.015 79.5102 33.835C79.0652 33.65 78.6852 33.3875 78.3702 33.0475C78.0552 32.7075 77.8127 32.2975 77.6427 31.8175C77.4727 31.3375 77.3877 30.7975 77.3877 30.1975C77.3877 29.6025 77.4727 29.065 77.6427 28.585C77.8127 28.1 78.0552 27.6875 78.3702 27.3475C78.6852 27.0075 79.0652 26.745 79.5102 26.56C79.9602 26.375 80.4627 26.2825 81.0177 26.2825ZM81.0177 33.0625C81.7677 33.0625 82.3277 32.8125 82.6977 32.3125C83.0677 31.8075 83.2527 31.105 83.2527 30.205C83.2527 29.3 83.0677 28.595 82.6977 28.09C82.3277 27.585 81.7677 27.3325 81.0177 27.3325C80.6377 27.3325 80.3077 27.3975 80.0277 27.5275C79.7477 27.6575 79.5127 27.845 79.3227 28.09C79.1377 28.335 78.9977 28.6375 78.9027 28.9975C78.8127 29.3525 78.7677 29.755 78.7677 30.205C78.7677 30.655 78.8127 31.0575 78.9027 31.4125C78.9977 31.7675 79.1377 32.0675 79.3227 32.3125C79.5127 32.5525 79.7477 32.7375 80.0277 32.8675C80.3077 32.9975 80.6377 33.0625 81.0177 33.0625ZM86.2776 34V26.4025H87.0426C87.1876 26.4025 87.2876 26.43 87.3426 26.485C87.3976 26.54 87.4351 26.635 87.4551 26.77L87.5451 27.955C87.8051 27.425 88.1251 27.0125 88.5051 26.7175C88.8901 26.4175 89.3401 26.2675 89.8551 26.2675C90.0651 26.2675 90.2551 26.2925 90.4251 26.3425C90.5951 26.3875 90.7526 26.4525 90.8976 26.5375L90.7251 27.535C90.6901 27.66 90.6126 27.7225 90.4926 27.7225C90.4226 27.7225 90.3151 27.7 90.1701 27.655C90.0251 27.605 89.8226 27.58 89.5626 27.58C89.0976 27.58 88.7076 27.715 88.3926 27.985C88.0826 28.255 87.8226 28.6475 87.6126 29.1625V34H86.2776ZM95.3349 26.2825C95.7899 26.2825 96.2099 26.36 96.5949 26.515C96.9799 26.665 97.3124 26.885 97.5924 27.175C97.8724 27.46 98.0899 27.815 98.2449 28.24C98.4049 28.66 98.4849 29.14 98.4849 29.68C98.4849 29.89 98.4624 30.03 98.4174 30.1C98.3724 30.17 98.2874 30.205 98.1624 30.205H93.1074C93.1174 30.685 93.1824 31.1025 93.3024 31.4575C93.4224 31.8125 93.5874 32.11 93.7974 32.35C94.0074 32.585 94.2574 32.7625 94.5474 32.8825C94.8374 32.9975 95.1624 33.055 95.5224 33.055C95.8574 33.055 96.1449 33.0175 96.3849 32.9425C96.6299 32.8625 96.8399 32.7775 97.0149 32.6875C97.1899 32.5975 97.3349 32.515 97.4499 32.44C97.5699 32.36 97.6724 32.32 97.7574 32.32C97.8674 32.32 97.9524 32.3625 98.0124 32.4475L98.3874 32.935C98.2224 33.135 98.0249 33.31 97.7949 33.46C97.5649 33.605 97.3174 33.725 97.0524 33.82C96.7924 33.915 96.5224 33.985 96.2424 34.03C95.9624 34.08 95.6849 34.105 95.4099 34.105C94.8849 34.105 94.3999 34.0175 93.9549 33.8425C93.5149 33.6625 93.1324 33.4025 92.8074 33.0625C92.4874 32.7175 92.2374 32.2925 92.0574 31.7875C91.8774 31.2825 91.7874 30.7025 91.7874 30.0475C91.7874 29.5175 91.8674 29.0225 92.0274 28.5625C92.1924 28.1025 92.4274 27.705 92.7324 27.37C93.0374 27.03 93.4099 26.765 93.8499 26.575C94.2899 26.38 94.7849 26.2825 95.3349 26.2825ZM95.3649 27.265C94.7199 27.265 94.2124 27.4525 93.8424 27.8275C93.4724 28.1975 93.2424 28.7125 93.1524 29.3725H97.2849C97.2849 29.0625 97.2424 28.78 97.1574 28.525C97.0724 28.265 96.9474 28.0425 96.7824 27.8575C96.6174 27.6675 96.4149 27.5225 96.1749 27.4225C95.9399 27.3175 95.6699 27.265 95.3649 27.265Z" fill="white"/>
</svg>
