<svg width="138" height="40" viewBox="0 0 138 40" fill="none" xmlns="http://www.w3.org/2000/svg">
<rect width="138" height="40" rx="4" fill="#0D0D0D"/>
<path d="M54.878 15.154C55.11 15.154 55.322 15.144 55.514 15.124C55.71 15.1 55.894 15.066 56.066 15.022C56.238 14.978 56.4 14.926 56.552 14.866C56.704 14.802 56.856 14.73 57.008 14.65V12.754H55.676C55.6 12.754 55.538 12.732 55.49 12.688C55.446 12.644 55.424 12.59 55.424 12.526V11.866H58.064V15.166C57.848 15.322 57.622 15.458 57.386 15.574C57.154 15.69 56.904 15.788 56.636 15.868C56.372 15.944 56.088 16 55.784 16.036C55.48 16.076 55.15 16.096 54.794 16.096C54.17 16.096 53.598 15.99 53.078 15.778C52.558 15.562 52.11 15.262 51.734 14.878C51.358 14.49 51.064 14.026 50.852 13.486C50.644 12.946 50.54 12.352 50.54 11.704C50.54 11.048 50.642 10.45 50.846 9.91C51.054 9.37 51.348 8.908 51.728 8.524C52.112 8.136 52.574 7.836 53.114 7.624C53.658 7.412 54.266 7.306 54.938 7.306C55.278 7.306 55.594 7.332 55.886 7.384C56.178 7.432 56.448 7.504 56.696 7.6C56.948 7.692 57.18 7.806 57.392 7.942C57.604 8.074 57.802 8.224 57.986 8.392L57.656 8.92C57.588 9.028 57.5 9.082 57.392 9.082C57.328 9.082 57.258 9.06 57.182 9.016C57.082 8.96 56.97 8.892 56.846 8.812C56.722 8.732 56.57 8.656 56.39 8.584C56.214 8.508 56.004 8.444 55.76 8.392C55.52 8.34 55.234 8.314 54.902 8.314C54.418 8.314 53.98 8.394 53.588 8.554C53.196 8.71 52.862 8.936 52.586 9.232C52.31 9.524 52.098 9.88 51.95 10.3C51.802 10.716 51.728 11.184 51.728 11.704C51.728 12.248 51.804 12.734 51.956 13.162C52.112 13.586 52.33 13.946 52.61 14.242C52.89 14.538 53.222 14.764 53.606 14.92C53.99 15.076 54.414 15.154 54.878 15.154ZM62.0945 9.826C62.4585 9.826 62.7945 9.888 63.1025 10.012C63.4105 10.132 63.6765 10.308 63.9005 10.54C64.1245 10.768 64.2985 11.052 64.4225 11.392C64.5505 11.728 64.6145 12.112 64.6145 12.544C64.6145 12.712 64.5965 12.824 64.5605 12.88C64.5245 12.936 64.4565 12.964 64.3565 12.964H60.3125C60.3205 13.348 60.3725 13.682 60.4685 13.966C60.5645 14.25 60.6965 14.488 60.8645 14.68C61.0325 14.868 61.2325 15.01 61.4645 15.106C61.6965 15.198 61.9565 15.244 62.2445 15.244C62.5125 15.244 62.7425 15.214 62.9345 15.154C63.1305 15.09 63.2985 15.022 63.4385 14.95C63.5785 14.878 63.6945 14.812 63.7865 14.752C63.8825 14.688 63.9645 14.656 64.0325 14.656C64.1205 14.656 64.1885 14.69 64.2365 14.758L64.5365 15.148C64.4045 15.308 64.2465 15.448 64.0625 15.568C63.8785 15.684 63.6805 15.78 63.4685 15.856C63.2605 15.932 63.0445 15.988 62.8205 16.024C62.5965 16.064 62.3745 16.084 62.1545 16.084C61.7345 16.084 61.3465 16.014 60.9905 15.874C60.6385 15.73 60.3325 15.522 60.0725 15.25C59.8165 14.974 59.6165 14.634 59.4725 14.23C59.3285 13.826 59.2565 13.362 59.2565 12.838C59.2565 12.414 59.3205 12.018 59.4485 11.65C59.5805 11.282 59.7685 10.964 60.0125 10.696C60.2565 10.424 60.5545 10.212 60.9065 10.06C61.2585 9.904 61.6545 9.826 62.0945 9.826ZM62.1185 10.612C61.6025 10.612 61.1965 10.762 60.9005 11.062C60.6045 11.358 60.4205 11.77 60.3485 12.298H63.6545C63.6545 12.05 63.6205 11.824 63.5525 11.62C63.4845 11.412 63.3845 11.234 63.2525 11.086C63.1205 10.934 62.9585 10.818 62.7665 10.738C62.5785 10.654 62.3625 10.612 62.1185 10.612ZM67.8235 16.096C67.3435 16.096 66.9735 15.962 66.7135 15.694C66.4575 15.426 66.3295 15.04 66.3295 14.536V10.816H65.5975C65.5335 10.816 65.4795 10.798 65.4355 10.762C65.3915 10.722 65.3695 10.662 65.3695 10.582V10.156L66.3655 10.03L66.6115 8.152C66.6195 8.092 66.6455 8.044 66.6895 8.008C66.7335 7.968 66.7895 7.948 66.8575 7.948H67.3975V10.042H69.1375V10.816H67.3975V14.464C67.3975 14.72 67.4595 14.91 67.5835 15.034C67.7075 15.158 67.8675 15.22 68.0635 15.22C68.1755 15.22 68.2715 15.206 68.3515 15.178C68.4355 15.146 68.5075 15.112 68.5675 15.076C68.6275 15.04 68.6775 15.008 68.7175 14.98C68.7615 14.948 68.7995 14.932 68.8315 14.932C68.8875 14.932 68.9375 14.966 68.9815 15.034L69.2935 15.544C69.1095 15.716 68.8875 15.852 68.6275 15.952C68.3675 16.048 68.0995 16.096 67.8235 16.096ZM73.9663 9.922V16H72.8983V9.922H73.9663ZM74.2063 8.014C74.2063 8.118 74.1843 8.216 74.1403 8.308C74.1003 8.396 74.0443 8.476 73.9723 8.548C73.9043 8.616 73.8243 8.67 73.7323 8.71C73.6403 8.75 73.5423 8.77 73.4383 8.77C73.3343 8.77 73.2363 8.75 73.1443 8.71C73.0563 8.67 72.9763 8.616 72.9043 8.548C72.8363 8.476 72.7823 8.396 72.7423 8.308C72.7023 8.216 72.6823 8.118 72.6823 8.014C72.6823 7.91 72.7023 7.812 72.7423 7.72C72.7823 7.624 72.8363 7.542 72.9043 7.474C72.9763 7.402 73.0563 7.346 73.1443 7.306C73.2363 7.266 73.3343 7.246 73.4383 7.246C73.5423 7.246 73.6403 7.266 73.7323 7.306C73.8243 7.346 73.9043 7.402 73.9723 7.474C74.0443 7.542 74.1003 7.624 74.1403 7.72C74.1843 7.812 74.2063 7.91 74.2063 8.014ZM77.6907 16.096C77.2107 16.096 76.8407 15.962 76.5807 15.694C76.3247 15.426 76.1967 15.04 76.1967 14.536V10.816H75.4647C75.4007 10.816 75.3467 10.798 75.3027 10.762C75.2587 10.722 75.2367 10.662 75.2367 10.582V10.156L76.2327 10.03L76.4787 8.152C76.4867 8.092 76.5127 8.044 76.5567 8.008C76.6007 7.968 76.6567 7.948 76.7247 7.948H77.2647V10.042H79.0047V10.816H77.2647V14.464C77.2647 14.72 77.3267 14.91 77.4507 15.034C77.5747 15.158 77.7347 15.22 77.9307 15.22C78.0427 15.22 78.1387 15.206 78.2187 15.178C78.3027 15.146 78.3747 15.112 78.4347 15.076C78.4947 15.04 78.5447 15.008 78.5847 14.98C78.6287 14.948 78.6667 14.932 78.6987 14.932C78.7547 14.932 78.8047 14.966 78.8487 15.034L79.1607 15.544C78.9767 15.716 78.7547 15.852 78.4947 15.952C78.2347 16.048 77.9667 16.096 77.6907 16.096ZM85.1055 9.826C85.5495 9.826 85.9495 9.9 86.3055 10.048C86.6655 10.196 86.9695 10.406 87.2175 10.678C87.4695 10.95 87.6615 11.28 87.7935 11.668C87.9295 12.052 87.9975 12.482 87.9975 12.958C87.9975 13.438 87.9295 13.87 87.7935 14.254C87.6615 14.638 87.4695 14.966 87.2175 15.238C86.9695 15.51 86.6655 15.72 86.3055 15.868C85.9495 16.012 85.5495 16.084 85.1055 16.084C84.6615 16.084 84.2595 16.012 83.8995 15.868C83.5435 15.72 83.2395 15.51 82.9875 15.238C82.7355 14.966 82.5415 14.638 82.4055 14.254C82.2695 13.87 82.2015 13.438 82.2015 12.958C82.2015 12.482 82.2695 12.052 82.4055 11.668C82.5415 11.28 82.7355 10.95 82.9875 10.678C83.2395 10.406 83.5435 10.196 83.8995 10.048C84.2595 9.9 84.6615 9.826 85.1055 9.826ZM85.1055 15.25C85.7055 15.25 86.1535 15.05 86.4495 14.65C86.7455 14.246 86.8935 13.684 86.8935 12.964C86.8935 12.24 86.7455 11.676 86.4495 11.272C86.1535 10.868 85.7055 10.666 85.1055 10.666C84.8015 10.666 84.5375 10.718 84.3135 10.822C84.0895 10.926 83.9015 11.076 83.7495 11.272C83.6015 11.468 83.4895 11.71 83.4135 11.998C83.3415 12.282 83.3055 12.604 83.3055 12.964C83.3055 13.324 83.3415 13.646 83.4135 13.93C83.4895 14.214 83.6015 14.454 83.7495 14.65C83.9015 14.842 84.0895 14.99 84.3135 15.094C84.5375 15.198 84.8015 15.25 85.1055 15.25ZM89.3135 16V9.922H89.9495C90.1015 9.922 90.1975 9.996 90.2375 10.144L90.3215 10.804C90.5855 10.512 90.8795 10.276 91.2035 10.096C91.5315 9.916 91.9095 9.826 92.3375 9.826C92.6695 9.826 92.9615 9.882 93.2135 9.994C93.4695 10.102 93.6815 10.258 93.8495 10.462C94.0215 10.662 94.1515 10.904 94.2395 11.188C94.3275 11.472 94.3715 11.786 94.3715 12.13V16H93.3035V12.13C93.3035 11.67 93.1975 11.314 92.9855 11.062C92.7775 10.806 92.4575 10.678 92.0255 10.678C91.7095 10.678 91.4135 10.754 91.1375 10.906C90.8655 11.058 90.6135 11.264 90.3815 11.524V16H89.3135ZM56.0975 32.9425C56.3875 32.9425 56.6525 32.93 56.8925 32.905C57.1375 32.875 57.3675 32.8325 57.5825 32.7775C57.7975 32.7225 58 32.6575 58.19 32.5825C58.38 32.5025 58.57 32.4125 58.76 32.3125V29.9425H57.095C57 29.9425 56.9225 29.915 56.8625 29.86C56.8075 29.805 56.78 29.7375 56.78 29.6575V28.8325H60.08V32.9575C59.81 33.1525 59.5275 33.3225 59.2325 33.4675C58.9425 33.6125 58.63 33.735 58.295 33.835C57.965 33.93 57.61 34 57.23 34.045C56.85 34.095 56.4375 34.12 55.9925 34.12C55.2125 34.12 54.4975 33.9875 53.8475 33.7225C53.1975 33.4525 52.6375 33.0775 52.1675 32.5975C51.6975 32.1125 51.33 31.5325 51.065 30.8575C50.805 30.1825 50.675 29.44 50.675 28.63C50.675 27.81 50.8025 27.0625 51.0575 26.3875C51.3175 25.7125 51.685 25.135 52.16 24.655C52.64 24.17 53.2175 23.795 53.8925 23.53C54.5725 23.265 55.3325 23.1325 56.1725 23.1325C56.5975 23.1325 56.9925 23.165 57.3575 23.23C57.7225 23.29 58.06 23.38 58.37 23.5C58.685 23.615 58.975 23.7575 59.24 23.9275C59.505 24.0925 59.7525 24.28 59.9825 24.49L59.57 25.15C59.485 25.285 59.375 25.3525 59.24 25.3525C59.16 25.3525 59.0725 25.325 58.9775 25.27C58.8525 25.2 58.7125 25.115 58.5575 25.015C58.4025 24.915 58.2125 24.82 57.9875 24.73C57.7675 24.635 57.505 24.555 57.2 24.49C56.9 24.425 56.5425 24.3925 56.1275 24.3925C55.5225 24.3925 54.975 24.4925 54.485 24.6925C53.995 24.8875 53.5775 25.17 53.2325 25.54C52.8875 25.905 52.6225 26.35 52.4375 26.875C52.2525 27.395 52.16 27.98 52.16 28.63C52.16 29.31 52.255 29.9175 52.445 30.4525C52.64 30.9825 52.9125 31.4325 53.2625 31.8025C53.6125 32.1725 54.0275 32.455 54.5075 32.65C54.9875 32.845 55.5175 32.9425 56.0975 32.9425ZM65.1856 26.2825C65.7406 26.2825 66.2406 26.375 66.6856 26.56C67.1356 26.745 67.5156 27.0075 67.8256 27.3475C68.1406 27.6875 68.3806 28.1 68.5456 28.585C68.7156 29.065 68.8006 29.6025 68.8006 30.1975C68.8006 30.7975 68.7156 31.3375 68.5456 31.8175C68.3806 32.2975 68.1406 32.7075 67.8256 33.0475C67.5156 33.3875 67.1356 33.65 66.6856 33.835C66.2406 34.015 65.7406 34.105 65.1856 34.105C64.6306 34.105 64.1281 34.015 63.6781 33.835C63.2331 33.65 62.8531 33.3875 62.5381 33.0475C62.2231 32.7075 61.9806 32.2975 61.8106 31.8175C61.6406 31.3375 61.5556 30.7975 61.5556 30.1975C61.5556 29.6025 61.6406 29.065 61.8106 28.585C61.9806 28.1 62.2231 27.6875 62.5381 27.3475C62.8531 27.0075 63.2331 26.745 63.6781 26.56C64.1281 26.375 64.6306 26.2825 65.1856 26.2825ZM65.1856 33.0625C65.9356 33.0625 66.4956 32.8125 66.8656 32.3125C67.2356 31.8075 67.4206 31.105 67.4206 30.205C67.4206 29.3 67.2356 28.595 66.8656 28.09C66.4956 27.585 65.9356 27.3325 65.1856 27.3325C64.8056 27.3325 64.4756 27.3975 64.1956 27.5275C63.9156 27.6575 63.6806 27.845 63.4906 28.09C63.3056 28.335 63.1656 28.6375 63.0706 28.9975C62.9806 29.3525 62.9356 29.755 62.9356 30.205C62.9356 30.655 62.9806 31.0575 63.0706 31.4125C63.1656 31.7675 63.3056 32.0675 63.4906 32.3125C63.6806 32.5525 63.9156 32.7375 64.1956 32.8675C64.4756 32.9975 64.8056 33.0625 65.1856 33.0625ZM73.5206 26.2825C74.0756 26.2825 74.5756 26.375 75.0206 26.56C75.4706 26.745 75.8506 27.0075 76.1606 27.3475C76.4756 27.6875 76.7156 28.1 76.8806 28.585C77.0506 29.065 77.1356 29.6025 77.1356 30.1975C77.1356 30.7975 77.0506 31.3375 76.8806 31.8175C76.7156 32.2975 76.4756 32.7075 76.1606 33.0475C75.8506 33.3875 75.4706 33.65 75.0206 33.835C74.5756 34.015 74.0756 34.105 73.5206 34.105C72.9656 34.105 72.4631 34.015 72.0131 33.835C71.5681 33.65 71.1881 33.3875 70.8731 33.0475C70.5581 32.7075 70.3156 32.2975 70.1456 31.8175C69.9756 31.3375 69.8906 30.7975 69.8906 30.1975C69.8906 29.6025 69.9756 29.065 70.1456 28.585C70.3156 28.1 70.5581 27.6875 70.8731 27.3475C71.1881 27.0075 71.5681 26.745 72.0131 26.56C72.4631 26.375 72.9656 26.2825 73.5206 26.2825ZM73.5206 33.0625C74.2706 33.0625 74.8306 32.8125 75.2006 32.3125C75.5706 31.8075 75.7556 31.105 75.7556 30.205C75.7556 29.3 75.5706 28.595 75.2006 28.09C74.8306 27.585 74.2706 27.3325 73.5206 27.3325C73.1406 27.3325 72.8106 27.3975 72.5306 27.5275C72.2506 27.6575 72.0156 27.845 71.8256 28.09C71.6406 28.335 71.5006 28.6375 71.4056 28.9975C71.3156 29.3525 71.2706 29.755 71.2706 30.205C71.2706 30.655 71.3156 31.0575 71.4056 31.4125C71.5006 31.7675 71.6406 32.0675 71.8256 32.3125C72.0156 32.5525 72.2506 32.7375 72.5306 32.8675C72.8106 32.9975 73.1406 33.0625 73.5206 33.0625ZM81.338 26.275C81.668 26.275 81.9755 26.3125 82.2605 26.3875C82.5505 26.4575 82.813 26.5625 83.048 26.7025H85.1105V27.1975C85.1105 27.3625 85.0055 27.4675 84.7955 27.5125L83.933 27.6325C84.103 27.9575 84.188 28.32 84.188 28.72C84.188 29.09 84.1155 29.4275 83.9705 29.7325C83.8305 30.0325 83.633 30.29 83.378 30.505C83.128 30.72 82.828 30.885 82.478 31C82.133 31.115 81.753 31.1725 81.338 31.1725C80.983 31.1725 80.648 31.13 80.333 31.045C80.173 31.145 80.0505 31.2525 79.9655 31.3675C79.8855 31.4825 79.8455 31.595 79.8455 31.705C79.8455 31.885 79.918 32.0225 80.063 32.1175C80.208 32.2075 80.4005 32.2725 80.6405 32.3125C80.8805 32.3525 81.153 32.3775 81.458 32.3875C81.763 32.3975 82.073 32.415 82.388 32.44C82.708 32.46 83.0205 32.4975 83.3255 32.5525C83.6305 32.6075 83.903 32.6975 84.143 32.8225C84.383 32.9475 84.5755 33.12 84.7205 33.34C84.8655 33.56 84.938 33.845 84.938 34.195C84.938 34.52 84.8555 34.835 84.6905 35.14C84.5305 35.445 84.298 35.715 83.993 35.95C83.688 36.19 83.3155 36.38 82.8755 36.52C82.4355 36.665 81.938 36.7375 81.383 36.7375C80.828 36.7375 80.3405 36.6825 79.9205 36.5725C79.5055 36.4625 79.1605 36.315 78.8855 36.13C78.6105 35.945 78.403 35.73 78.263 35.485C78.128 35.245 78.0605 34.9925 78.0605 34.7275C78.0605 34.3525 78.178 34.035 78.413 33.775C78.653 33.51 78.9805 33.3 79.3955 33.145C79.1805 33.045 79.008 32.9125 78.878 32.7475C78.753 32.5775 78.6905 32.3525 78.6905 32.0725C78.6905 31.9625 78.7105 31.85 78.7505 31.735C78.7905 31.615 78.8505 31.4975 78.9305 31.3825C79.0155 31.2675 79.118 31.1575 79.238 31.0525C79.358 30.9475 79.498 30.855 79.658 30.775C79.283 30.565 78.988 30.2875 78.773 29.9425C78.563 29.5925 78.458 29.185 78.458 28.72C78.458 28.35 78.528 28.015 78.668 27.715C78.813 27.41 79.013 27.1525 79.268 26.9425C79.523 26.7275 79.8255 26.5625 80.1755 26.4475C80.5305 26.3325 80.918 26.275 81.338 26.275ZM83.708 34.4125C83.708 34.2225 83.6555 34.07 83.5505 33.955C83.4455 33.84 83.303 33.7525 83.123 33.6925C82.943 33.6275 82.7355 33.58 82.5005 33.55C82.2655 33.52 82.018 33.5 81.758 33.49C81.498 33.475 81.233 33.46 80.963 33.445C80.693 33.43 80.4355 33.4025 80.1905 33.3625C79.9055 33.4975 79.673 33.6625 79.493 33.8575C79.318 34.0525 79.2305 34.285 79.2305 34.555C79.2305 34.725 79.273 34.8825 79.358 35.0275C79.448 35.1775 79.583 35.305 79.763 35.41C79.943 35.52 80.168 35.605 80.438 35.665C80.713 35.73 81.0355 35.7625 81.4055 35.7625C81.7655 35.7625 82.088 35.73 82.373 35.665C82.658 35.6 82.898 35.5075 83.093 35.3875C83.293 35.2675 83.4455 35.125 83.5505 34.96C83.6555 34.795 83.708 34.6125 83.708 34.4125ZM81.338 30.2875C81.608 30.2875 81.8455 30.25 82.0505 30.175C82.2605 30.1 82.4355 29.995 82.5755 29.86C82.7155 29.725 82.8205 29.565 82.8905 29.38C82.9605 29.19 82.9955 28.9825 82.9955 28.7575C82.9955 28.2925 82.853 27.9225 82.568 27.6475C82.288 27.3725 81.878 27.235 81.338 27.235C80.803 27.235 80.393 27.3725 80.108 27.6475C79.828 27.9225 79.688 28.2925 79.688 28.7575C79.688 28.9825 79.723 29.19 79.793 29.38C79.868 29.565 79.9755 29.725 80.1155 29.86C80.2555 29.995 80.428 30.1 80.633 30.175C80.838 30.25 81.073 30.2875 81.338 30.2875ZM87.9267 22.9525V34H86.5917V22.9525H87.9267ZM93.2871 26.2825C93.7421 26.2825 94.1621 26.36 94.5471 26.515C94.9321 26.665 95.2646 26.885 95.5446 27.175C95.8246 27.46 96.0421 27.815 96.1971 28.24C96.3571 28.66 96.4371 29.14 96.4371 29.68C96.4371 29.89 96.4146 30.03 96.3696 30.1C96.3246 30.17 96.2396 30.205 96.1146 30.205H91.0596C91.0696 30.685 91.1346 31.1025 91.2546 31.4575C91.3746 31.8125 91.5396 32.11 91.7496 32.35C91.9596 32.585 92.2096 32.7625 92.4996 32.8825C92.7896 32.9975 93.1146 33.055 93.4746 33.055C93.8096 33.055 94.0971 33.0175 94.3371 32.9425C94.5821 32.8625 94.7921 32.7775 94.9671 32.6875C95.1421 32.5975 95.2871 32.515 95.4021 32.44C95.5221 32.36 95.6246 32.32 95.7096 32.32C95.8196 32.32 95.9046 32.3625 95.9646 32.4475L96.3396 32.935C96.1746 33.135 95.9771 33.31 95.7471 33.46C95.5171 33.605 95.2696 33.725 95.0046 33.82C94.7446 33.915 94.4746 33.985 94.1946 34.03C93.9146 34.08 93.6371 34.105 93.3621 34.105C92.8371 34.105 92.3521 34.0175 91.9071 33.8425C91.4671 33.6625 91.0846 33.4025 90.7596 33.0625C90.4396 32.7175 90.1896 32.2925 90.0096 31.7875C89.8296 31.2825 89.7396 30.7025 89.7396 30.0475C89.7396 29.5175 89.8196 29.0225 89.9796 28.5625C90.1446 28.1025 90.3796 27.705 90.6846 27.37C90.9896 27.03 91.3621 26.765 91.8021 26.575C92.2421 26.38 92.7371 26.2825 93.2871 26.2825ZM93.3171 27.265C92.6721 27.265 92.1646 27.4525 91.7946 27.8275C91.4246 28.1975 91.1946 28.7125 91.1046 29.3725H95.2371C95.2371 29.0625 95.1946 28.78 95.1096 28.525C95.0246 28.265 94.8996 28.0425 94.7346 27.8575C94.5696 27.6675 94.3671 27.5225 94.1271 27.4225C93.8921 27.3175 93.6221 27.265 93.3171 27.265ZM101.046 36.5725V26.4025H101.841C102.031 26.4025 102.151 26.495 102.201 26.68L102.314 27.58C102.639 27.185 103.009 26.8675 103.424 26.6275C103.844 26.3875 104.326 26.2675 104.871 26.2675C105.306 26.2675 105.701 26.3525 106.056 26.5225C106.411 26.6875 106.714 26.935 106.964 27.265C107.214 27.59 107.406 27.995 107.541 28.48C107.676 28.965 107.744 29.5225 107.744 30.1525C107.744 30.7125 107.669 31.235 107.519 31.72C107.369 32.2 107.154 32.6175 106.874 32.9725C106.594 33.3225 106.249 33.6 105.839 33.805C105.434 34.005 104.976 34.105 104.466 34.105C103.996 34.105 103.594 34.0275 103.259 33.8725C102.929 33.7175 102.636 33.4975 102.381 33.2125V36.5725H101.046ZM104.429 27.3475C103.994 27.3475 103.611 27.4475 103.281 27.6475C102.956 27.8475 102.656 28.13 102.381 28.495V32.17C102.626 32.5 102.894 32.7325 103.184 32.8675C103.479 33.0025 103.806 33.07 104.166 33.07C104.871 33.07 105.414 32.8175 105.794 32.3125C106.174 31.8075 106.364 31.0875 106.364 30.1525C106.364 29.6575 106.319 29.2325 106.229 28.8775C106.144 28.5225 106.019 28.2325 105.854 28.0075C105.689 27.7775 105.486 27.61 105.246 27.505C105.006 27.4 104.734 27.3475 104.429 27.3475ZM110.808 22.9525V34H109.473V22.9525H110.808ZM118.74 34H118.148C118.018 34 117.913 33.98 117.833 33.94C117.753 33.9 117.7 33.815 117.675 33.685L117.525 32.98C117.325 33.16 117.13 33.3225 116.94 33.4675C116.75 33.6075 116.55 33.7275 116.34 33.8275C116.13 33.9225 115.905 33.995 115.665 34.045C115.43 34.095 115.168 34.12 114.878 34.12C114.583 34.12 114.305 34.08 114.045 34C113.79 33.915 113.568 33.79 113.378 33.625C113.188 33.46 113.035 33.2525 112.92 33.0025C112.81 32.7475 112.755 32.4475 112.755 32.1025C112.755 31.8025 112.838 31.515 113.003 31.24C113.168 30.96 113.433 30.7125 113.798 30.4975C114.168 30.2825 114.65 30.1075 115.245 29.9725C115.84 29.8325 116.568 29.7525 117.428 29.7325V29.14C117.428 28.55 117.3 28.105 117.045 27.805C116.795 27.5 116.423 27.3475 115.928 27.3475C115.603 27.3475 115.328 27.39 115.103 27.475C114.883 27.555 114.69 27.6475 114.525 27.7525C114.365 27.8525 114.225 27.945 114.105 28.03C113.99 28.11 113.875 28.15 113.76 28.15C113.67 28.15 113.59 28.1275 113.52 28.0825C113.455 28.0325 113.403 27.9725 113.363 27.9025L113.123 27.475C113.543 27.07 113.995 26.7675 114.48 26.5675C114.965 26.3675 115.503 26.2675 116.093 26.2675C116.518 26.2675 116.895 26.3375 117.225 26.4775C117.555 26.6175 117.833 26.8125 118.058 27.0625C118.283 27.3125 118.453 27.615 118.568 27.97C118.683 28.325 118.74 28.715 118.74 29.14V34ZM115.275 33.1825C115.51 33.1825 115.725 33.16 115.92 33.115C116.115 33.065 116.298 32.9975 116.468 32.9125C116.643 32.8225 116.808 32.715 116.963 32.59C117.123 32.465 117.278 32.3225 117.428 32.1625V30.58C116.813 30.6 116.29 30.65 115.86 30.73C115.43 30.805 115.08 30.905 114.81 31.03C114.54 31.155 114.343 31.3025 114.218 31.4725C114.098 31.6425 114.038 31.8325 114.038 32.0425C114.038 32.2425 114.07 32.415 114.135 32.56C114.2 32.705 114.288 32.825 114.398 32.92C114.508 33.01 114.638 33.0775 114.788 33.1225C114.938 33.1625 115.1 33.1825 115.275 33.1825ZM122.756 36.2425C122.711 36.3425 122.654 36.4225 122.584 36.4825C122.519 36.5425 122.416 36.5725 122.276 36.5725H121.286L122.674 33.5575L119.539 26.4025H120.694C120.809 26.4025 120.899 26.4325 120.964 26.4925C121.029 26.5475 121.076 26.61 121.106 26.68L123.139 31.465C123.184 31.575 123.221 31.685 123.251 31.795C123.286 31.905 123.316 32.0175 123.341 32.1325C123.376 32.0175 123.411 31.905 123.446 31.795C123.481 31.685 123.521 31.5725 123.566 31.4575L125.539 26.68C125.569 26.6 125.619 26.535 125.689 26.485C125.764 26.43 125.844 26.4025 125.929 26.4025H126.994L122.756 36.2425Z" fill="white"/>
<path d="M15.5478 5.46738C15.1678 5.91802 14.976 6.49492 15.0115 7.08049V32.5676C14.976 33.1532 15.1678 33.7301 15.5478 34.1808L15.6294 34.2614L30.0747 19.9969V19.6628L15.6294 5.38672L15.5478 5.46738Z" fill="url(#paint0_linear)"/>
<path d="M34.8548 24.7559L30.0747 19.9972V19.663L34.8548 14.8928L34.9598 14.9504L40.6842 18.1651C42.3165 19.0754 42.3165 20.5733 40.6842 21.4951L34.9831 24.6982L34.8548 24.7559Z" fill="url(#paint1_linear)"/>
<path d="M34.9948 24.6866L30.0748 19.8242L15.5479 34.1809C15.8806 34.4699 16.305 34.635 16.7478 34.6477C17.1905 34.6603 17.6239 34.5196 17.9729 34.25L35.0064 24.6866" fill="url(#paint2_linear)"/>
<path d="M34.9952 14.9618L17.9617 5.3984C17.6127 5.1288 17.1793 4.98816 16.7365 5.00078C16.2937 5.0134 15.8693 5.1785 15.5366 5.46754L30.0752 19.8242L34.9952 14.9618Z" fill="url(#paint3_linear)"/>
<path opacity="0.2" d="M34.8549 24.5828L17.9612 34.0886C17.6246 34.3373 17.2156 34.4717 16.7953 34.4717C16.3751 34.4717 15.9661 34.3373 15.6295 34.0886L15.5479 34.1692L15.6295 34.2499C15.9653 34.5004 16.3746 34.6359 16.7953 34.6359C17.2161 34.6359 17.6254 34.5004 17.9612 34.2499L34.9948 24.6865L34.8549 24.5828Z" fill="black"/>
<path opacity="0.12" d="M15.5478 34.0196C15.1678 33.569 14.976 32.9921 15.0115 32.4065V32.5793C14.976 33.1649 15.1678 33.7418 15.5478 34.1924L15.6294 34.1118L15.5478 34.0196ZM40.6843 21.3221L34.8549 24.5829L34.9598 24.6866L40.6843 21.4834C41.0091 21.3326 41.2879 21.0998 41.4926 20.8085C41.6973 20.5172 41.8206 20.1777 41.8502 19.8242C41.7846 20.1454 41.6454 20.4474 41.4433 20.707C41.2412 20.9667 40.9815 21.1771 40.6843 21.3221Z" fill="black"/>
<path opacity="0.25" d="M17.9613 5.55927L40.6844 18.3259C40.9817 18.4709 41.2413 18.6813 41.4435 18.941C41.6456 19.2007 41.7847 19.5027 41.8503 19.8238C41.8208 19.4703 41.6975 19.1308 41.4928 18.8395C41.2881 18.5482 41.0092 18.3154 40.6844 18.1646L17.9613 5.39796C16.3291 4.4877 15 5.24817 15 7.09173V7.26456C15.035 5.40948 16.3408 4.64901 17.9613 5.55927Z" fill="white"/>
<defs>
<linearGradient id="paint0_linear" x1="28.7923" y1="6.81547" x2="9.45931" y2="26.3777" gradientUnits="userSpaceOnUse">
<stop stop-color="#00A0FF"/>
<stop offset="0.01" stop-color="#00A1FF"/>
<stop offset="0.26" stop-color="#00BEFF"/>
<stop offset="0.51" stop-color="#00D2FF"/>
<stop offset="0.76" stop-color="#00DFFF"/>
<stop offset="1" stop-color="#00E3FF"/>
</linearGradient>
<linearGradient id="paint1_linear" x1="42.8178" y1="19.8243" x2="14.6151" y2="19.8243" gradientUnits="userSpaceOnUse">
<stop stop-color="#FFE000"/>
<stop offset="0.41" stop-color="#FFBD00"/>
<stop offset="0.78" stop-color="#FFA500"/>
<stop offset="1" stop-color="#FF9C00"/>
</linearGradient>
<linearGradient id="paint2_linear" x1="32.3249" y1="22.4743" x2="6.10203" y2="48.9965" gradientUnits="userSpaceOnUse">
<stop stop-color="#FF3A44"/>
<stop offset="1" stop-color="#C31162"/>
</linearGradient>
<linearGradient id="paint3_linear" x1="11.8874" y1="-3.01281" x2="23.5932" y2="8.83174" gradientUnits="userSpaceOnUse">
<stop stop-color="#32A071"/>
<stop offset="0.07" stop-color="#2DA771"/>
<stop offset="0.48" stop-color="#15CF74"/>
<stop offset="0.8" stop-color="#06E775"/>
<stop offset="1" stop-color="#00F076"/>
</linearGradient>
</defs>
</svg>
