<svg viewBox="0 0 24 24" xmlns="http://www.w3.org/2000/svg"><path d="m21.06 12.28a5.69 5.69 0 0 0 -1.67-4l-5.39-5.47a2.83 2.83 0 0 0 -4 0l-5.39 5.42a5.69 5.69 0 0 0 -1.67 4 5.7 5.7 0 0 0 5.72 5.77 6.88 6.88 0 0 1 -1.23 2.37 1 1 0 0 0 .81 1.63h7.52a1 1 0 0 0 .78-1.63 6.84 6.84 0 0 1 -1.23-2.37 5.69 5.69 0 0 0 5.75-5.71zm-3.06 2.63a3.78 3.78 0 0 1 -3.66.95 1 1 0 0 0 -.17 0h-.2a1.41 1.41 0 0 0 -.22.06h-.15a.69.69 0 0 0 -.13.11.75.75 0 0 0 -.17.14.6.6 0 0 1 -.06.11 2.53 2.53 0 0 0 -.12.23 1.1 1.1 0 0 0 0 .18v.18a8.84 8.84 0 0 0 .82 3.13h-3.88a8.62 8.62 0 0 0 .88-3c0-.06 0-.12 0-.19a1.1 1.1 0 0 0 0-.18 1.12 1.12 0 0 0 -.13-.24.53.53 0 0 0 -.06-.1.54.54 0 0 0 -.16-.14 1.27 1.27 0 0 0 -.13-.11h-.14a.88.88 0 0 0 -.23-.07h-.19a1.1 1.1 0 0 0 -.18 0 3.81 3.81 0 0 1 -3.72-1.06 3.75 3.75 0 0 1 -1.09-2.63 3.69 3.69 0 0 1 1.09-2.63l5.4-5.42a.81.81 0 0 1 1.13 0l5.47 5.42a3.69 3.69 0 0 1 1.09 2.63 3.78 3.78 0 0 1 -1.09 2.63z"/></svg>